<?xml version="1.0" encoding="UTF-8" standalone="no"?>
<svg
   xmlns:dc="http://purl.org/dc/elements/1.1/"
   xmlns:cc="http://creativecommons.org/ns#"
   xmlns:rdf="http://www.w3.org/1999/02/22-rdf-syntax-ns#"
   xmlns:svg="http://www.w3.org/2000/svg"
   xmlns="http://www.w3.org/2000/svg"
   viewBox="0 0 230.476 230.476"
   height="230.476"
   width="230.476"
   xml:space="preserve"
   id="svg2"
   version="1.1"><metadata
     id="metadata8"><rdf:RDF><cc:Work
         rdf:about=""><dc:format>image/svg+xml</dc:format><dc:type
           rdf:resource="http://purl.org/dc/dcmitype/StillImage" /></cc:Work></rdf:RDF></metadata><defs
     id="defs6"><clipPath
       id="clipPath18"
       clipPathUnits="userSpaceOnUse"><path
         id="path16"
         d="M 0,172.857 H 172.857 V 0 H 0 Z" /></clipPath></defs><g
     transform="matrix(1.3333333,0,0,-1.3333333,0,230.476)"
     id="g10"><g
       id="g12"><g
         clip-path="url(#clipPath18)"
         id="g14"><g
           transform="translate(129.5951,61.0085)"
           id="g20"><path
             id="path22"
             style="fill:#ffffff;fill-opacity:1;fill-rule:nonzero;stroke:none"
             d="m 0,0 c -4.958,4.895 -11.147,4.895 -16.073,0 -3.758,-3.726 -7.516,-7.452 -11.21,-11.242 -1.011,-1.042 -1.863,-1.263 -3.095,-0.568 -2.431,1.326 -5.021,2.4 -7.357,3.852 -10.895,6.853 -20.021,15.663 -28.105,25.578 -4.01,4.927 -7.578,10.2 -10.073,16.137 -0.505,1.2 -0.41,1.989 0.568,2.968 3.758,3.631 7.421,7.358 11.116,11.084 5.147,5.179 5.147,11.241 -0.032,16.452 -2.936,2.968 -5.873,5.873 -8.81,8.842 -3.031,3.031 -6.031,6.094 -9.094,9.094 -4.958,4.831 -11.147,4.831 -16.073,-0.032 -3.79,-3.726 -7.421,-7.547 -11.274,-11.21 -3.568,-3.379 -5.368,-7.515 -5.747,-12.347 -0.6,-7.863 1.326,-15.283 4.042,-22.515 5.558,-14.967 14.021,-28.262 24.283,-40.451 13.863,-16.483 30.41,-29.525 49.767,-38.935 8.715,-4.232 17.747,-7.484 27.567,-8.021 6.758,-0.379 12.631,1.326 17.337,6.6 3.22,3.6 6.852,6.884 10.262,10.326 5.053,5.115 5.084,11.305 0.063,16.357 C 12.063,-12 6.031,-6 0,0" /></g><g
           transform="translate(123.5637,86.176)"
           id="g24"><path
             id="path26"
             style="fill:#ffffff;fill-opacity:1;fill-rule:nonzero;stroke:none"
             d="m 0,0 11.652,1.989 c -1.831,10.705 -6.884,20.4 -14.557,28.105 -8.116,8.115 -18.378,13.231 -29.683,14.81 L -34.23,33.188 c 8.747,-1.231 16.704,-5.179 22.988,-11.462 C -5.305,15.789 -1.421,8.273 0,0" /></g><g
           transform="translate(141.7841,136.8268)"
           id="g28"><path
             id="path30"
             style="fill:#ffffff;fill-opacity:1;fill-rule:nonzero;stroke:none"
             d="M 0,0 C -13.452,13.452 -30.473,21.947 -49.261,24.568 L -50.903,12.852 C -34.672,10.579 -19.957,3.221 -8.337,-8.368 2.684,-19.389 9.915,-33.315 12.536,-48.63 l 11.653,1.99 C 21.126,-28.894 12.757,-12.789 0,0" /></g></g></g></g></svg>