<?xml version="1.0" encoding="UTF-8" standalone="no"?>
<svg
   xmlns:dc="http://purl.org/dc/elements/1.1/"
   xmlns:cc="http://creativecommons.org/ns#"
   xmlns:rdf="http://www.w3.org/1999/02/22-rdf-syntax-ns#"
   xmlns:svg="http://www.w3.org/2000/svg"
   xmlns="http://www.w3.org/2000/svg"
   viewBox="0 0 175.23866 180.952"
   height="180.952"
   width="175.23866"
   xml:space="preserve"
   id="svg2"
   version="1.1"><metadata
     id="metadata8"><rdf:RDF><cc:Work
         rdf:about=""><dc:format>image/svg+xml</dc:format><dc:type
           rdf:resource="http://purl.org/dc/dcmitype/StillImage" /></cc:Work></rdf:RDF></metadata><defs
     id="defs6"><clipPath
       id="clipPath18"
       clipPathUnits="userSpaceOnUse"><path
         id="path16"
         d="M 0,135.714 H 131.429 V 0 H 0 Z" /></clipPath></defs><g
     transform="matrix(1.3333333,0,0,-1.3333333,0,180.952)"
     id="g10"><g
       id="g12"><g
         clip-path="url(#clipPath18)"
         id="g14"><g
           transform="translate(57.7769,70.4806)"
           id="g20"><path
             id="path22"
             style="fill:#ffffff;fill-opacity:1;fill-rule:nonzero;stroke:none"
             d="m 0,0 c 0.3,1.775 0.847,3.36 1.639,4.753 0.792,1.393 1.884,2.512 3.223,3.359 1.284,0.792 2.895,1.229 4.889,1.257 1.311,-0.028 2.513,-0.246 3.551,-0.711 1.12,-0.491 2.048,-1.147 2.84,-1.966 0.792,-0.82 1.393,-1.803 1.83,-2.895 C 18.409,2.704 18.655,1.53 18.71,0.3 h 9.778 c -0.082,2.568 -0.601,4.917 -1.502,7.047 -0.902,2.131 -2.213,3.961 -3.852,5.518 -1.638,1.557 -3.605,2.731 -5.899,3.578 -2.295,0.846 -4.835,1.283 -7.621,1.283 -3.55,0 -6.637,-0.6 -9.259,-1.83 C -2.267,14.667 -4.452,13.001 -6.2,10.871 -7.948,8.74 -9.259,6.282 -10.106,3.469 c -0.847,-2.813 -1.256,-5.791 -1.256,-8.932 v -1.502 c 0,-3.168 0.437,-6.145 1.283,-8.959 0.847,-2.813 2.158,-5.271 3.906,-7.374 1.748,-2.104 3.933,-3.77 6.583,-4.999 2.649,-1.229 5.736,-1.83 9.286,-1.83 2.568,0 4.971,0.41 7.211,1.257 2.24,0.846 4.206,1.994 5.9,3.468 1.693,1.475 3.059,3.169 4.042,5.135 0.983,1.967 1.557,4.043 1.639,6.283 H 18.71 c -0.055,-1.148 -0.328,-2.186 -0.82,-3.169 -0.491,-0.983 -1.147,-1.803 -1.966,-2.485 -0.82,-0.683 -1.776,-1.229 -2.868,-1.612 -1.038,-0.355 -2.131,-0.546 -3.305,-0.546 -1.967,0.054 -3.578,0.464 -4.889,1.284 -1.366,0.874 -2.458,1.993 -3.251,3.386 -0.792,1.393 -1.338,2.978 -1.638,4.78 -0.301,1.803 -0.41,3.551 -0.41,5.381 v 1.502 C -0.437,-3.605 -0.3,-1.775 0,0" /></g><g
           transform="translate(68.2653,20.5789)"
           id="g24"><path
             id="path26"
             style="fill:#ffffff;fill-opacity:1;fill-rule:nonzero;stroke:none"
             d="m 0,0 c -24.09,0 -43.702,19.611 -43.702,43.702 0,24.09 19.612,43.701 43.702,43.701 24.09,0 43.702,-19.611 43.702,-43.701 C 43.702,19.611 24.09,0 0,0 m 0,98.328 c -30.181,0 -54.627,-24.445 -54.627,-54.626 0,-30.182 24.446,-54.627 54.627,-54.627 30.181,0 54.627,24.445 54.627,54.627 0,30.181 -24.446,54.626 -54.627,54.626" /></g></g></g></g></svg>