<?xml version="1.0" encoding="UTF-8" standalone="no"?>
<svg
   xmlns:dc="http://purl.org/dc/elements/1.1/"
   xmlns:cc="http://creativecommons.org/ns#"
   xmlns:rdf="http://www.w3.org/1999/02/22-rdf-syntax-ns#"
   xmlns:svg="http://www.w3.org/2000/svg"
   xmlns="http://www.w3.org/2000/svg"
   viewBox="0 0 263.996 262.85733"
   height="262.85733"
   width="263.996"
   xml:space="preserve"
   id="svg2"
   version="1.1"><metadata
     id="metadata8"><rdf:RDF><cc:Work
         rdf:about=""><dc:format>image/svg+xml</dc:format><dc:type
           rdf:resource="http://purl.org/dc/dcmitype/StillImage" /></cc:Work></rdf:RDF></metadata><defs
     id="defs6"><clipPath
       id="clipPath18"
       clipPathUnits="userSpaceOnUse"><path
         id="path16"
         d="M 0,197.143 H 197.997 V 0 H 0 Z" /></clipPath></defs><g
     transform="matrix(1.3333333,0,0,-1.3333333,0,262.85733)"
     id="g10"><g
       id="g12"><g
         clip-path="url(#clipPath18)"
         id="g14"><g
           transform="translate(169.8543,65.0765)"
           id="g20"><path
             id="path22"
             style="fill:#ffffff;fill-opacity:1;fill-rule:nonzero;stroke:none"
             d="m 0,0 c 0,-21.23 -17.27,-38.5 -38.5,-38.5 h -66 c -21.23,0 -38.5,17.27 -38.5,38.5 v 66 c 0,21.23 17.27,38.5 38.5,38.5 h 66 C -17.27,104.5 0,87.23 0,66 Z m -38.5,121 h -66 c -30.371,0 -55,-24.629 -55,-55 V 0 c 0,-30.371 24.629,-55 55,-55 h 66 c 30.371,0 55,24.629 55,55 v 66 c 0,30.371 -24.629,55 -55,55" /></g><g
           transform="translate(98.3543,70.5765)"
           id="g24"><path
             id="path26"
             style="fill:#ffffff;fill-opacity:1;fill-rule:nonzero;stroke:none"
             d="M 0,0 C -15.158,0 -27.5,12.342 -27.5,27.5 -27.5,42.669 -15.158,55 0,55 15.158,55 27.5,42.669 27.5,27.5 27.5,12.342 15.158,0 0,0 m 0,71.5 c -24.299,0 -44,-19.701 -44,-44 0,-24.299 19.701,-44 44,-44 24.299,0 44,19.701 44,44 0,24.299 -19.701,44 -44,44" /></g><g
           transform="translate(145.6543,151.2395)"
           id="g28"><path
             id="path30"
             style="fill:#ffffff;fill-opacity:1;fill-rule:nonzero;stroke:none"
             d="m 0,0 c 3.238,0 5.863,-2.625 5.863,-5.863 0,-3.238 -2.625,-5.863 -5.863,-5.863 -3.238,0 -5.863,2.625 -5.863,5.863 C -5.863,-2.625 -3.238,0 0,0" /></g></g></g></g></svg>