<?xml version="1.0" encoding="UTF-8" standalone="no"?>
<svg
   xmlns:dc="http://purl.org/dc/elements/1.1/"
   xmlns:cc="http://creativecommons.org/ns#"
   xmlns:rdf="http://www.w3.org/1999/02/22-rdf-syntax-ns#"
   xmlns:svg="http://www.w3.org/2000/svg"
   xmlns="http://www.w3.org/2000/svg"
   viewBox="0 0 241.90533 179.048"
   height="179.048"
   width="241.90533"
   xml:space="preserve"
   id="svg2"
   version="1.1"><metadata
     id="metadata8"><rdf:RDF><cc:Work
         rdf:about=""><dc:format>image/svg+xml</dc:format><dc:type
           rdf:resource="http://purl.org/dc/dcmitype/StillImage" /></cc:Work></rdf:RDF></metadata><defs
     id="defs6"><clipPath
       id="clipPath18"
       clipPathUnits="userSpaceOnUse"><path
         id="path16"
         d="M 0,134.286 H 181.429 V 0 H 0 Z" /></clipPath></defs><g
     transform="matrix(1.3333333,0,0,-1.3333333,0,179.048)"
     id="g10"><g
       id="g12"><g
         clip-path="url(#clipPath18)"
         id="g14"><g
           transform="translate(114.6606,63.3074)"
           id="g20"><path
             id="path22"
             style="fill:#ffffff;fill-opacity:1;fill-rule:nonzero;stroke:none"
             d="m 0,0 -32.92,-17.205 c -0.736,-0.385 -1.54,-0.575 -2.344,-0.575 -0.91,0 -1.818,0.245 -2.623,0.732 -1.514,0.917 -2.439,2.559 -2.439,4.329 v 34.3 c 0,1.767 0.922,3.407 2.434,4.325 1.512,0.918 3.392,0.981 4.961,0.166 L -0.012,8.978 C 1.663,8.109 2.715,6.38 2.718,4.493 2.72,2.605 1.672,0.874 0,0 m 50.057,49.485 c -5.664,6.733 -16.121,9.479 -36.092,9.479 H -58.53 c -20.428,0 -31.062,-2.924 -36.705,-10.092 -5.501,-6.989 -5.501,-17.287 -5.501,-31.539 V -9.832 c 0,-27.612 6.527,-41.631 42.206,-41.631 h 72.495 c 17.319,0 26.916,2.424 33.125,8.366 6.367,6.093 9.083,16.041 9.083,33.265 v 27.165 c 0,15.03 -0.426,25.389 -6.116,32.152" /></g></g></g></g></svg>