<?xml version="1.0" encoding="UTF-8" standalone="no"?>
<svg
   xmlns:dc="http://purl.org/dc/elements/1.1/"
   xmlns:cc="http://creativecommons.org/ns#"
   xmlns:rdf="http://www.w3.org/1999/02/22-rdf-syntax-ns#"
   xmlns:svg="http://www.w3.org/2000/svg"
   xmlns="http://www.w3.org/2000/svg"
   viewBox="0 0 156.19067 154.28532"
   height="154.28532"
   width="156.19067"
   xml:space="preserve"
   id="svg2"
   version="1.1"><metadata
     id="metadata8"><rdf:RDF><cc:Work
         rdf:about=""><dc:format>image/svg+xml</dc:format><dc:type
           rdf:resource="http://purl.org/dc/dcmitype/StillImage" /></cc:Work></rdf:RDF></metadata><defs
     id="defs6"><clipPath
       id="clipPath18"
       clipPathUnits="userSpaceOnUse"><path
         id="path16"
         d="M 0,115.714 H 117.143 V 0 H 0 Z" /></clipPath></defs><g
     transform="matrix(1.3333333,0,0,-1.3333333,0,154.28533)"
     id="g10"><g
       id="g12"><g
         clip-path="url(#clipPath18)"
         id="g14"><g
           transform="translate(104.2857,85.8561)"
           id="g20"><path
             id="path22"
             style="fill:#ffffff;fill-opacity:1;fill-rule:nonzero;stroke:none"
             d="M 0,0 C 0,7.882 -7.116,15.001 -15,15.001 H -75 C -82.884,15.001 -90,7.882 -90,0 v -59.998 c 0,-7.882 7.116,-15.001 15.001,-15.001 H -45 v 34 h -11 v 15 h 11 v 5.844 c 0,10.079 7.568,19.156 16.875,19.156 H -16 v -15 h -12.125 c -1.327,0 -2.875,-1.611 -2.875,-4.024 v -5.976 h 15 v -15 h -15 v -34 h 16 c 7.884,0 15,7.119 15,15.001 z" /></g></g></g></g></svg>