<?xml version="1.0" encoding="UTF-8" standalone="no"?>
<svg
   xmlns:dc="http://purl.org/dc/elements/1.1/"
   xmlns:cc="http://creativecommons.org/ns#"
   xmlns:rdf="http://www.w3.org/1999/02/22-rdf-syntax-ns#"
   xmlns:svg="http://www.w3.org/2000/svg"
   xmlns="http://www.w3.org/2000/svg"
   viewBox="0 0 573.33331 504.76132"
   height="504.76132"
   width="573.33331"
   xml:space="preserve"
   id="svg2"
   version="1.1"><metadata
     id="metadata8"><rdf:RDF><cc:Work
         rdf:about=""><dc:format>image/svg+xml</dc:format><dc:type
           rdf:resource="http://purl.org/dc/dcmitype/StillImage" /></cc:Work></rdf:RDF></metadata><defs
     id="defs6"><clipPath
       id="clipPath18"
       clipPathUnits="userSpaceOnUse"><path
         id="path16"
         d="m 135.695,200.554 v -39.149 -1.85 -8.859 -12.629 c 0,-6.419 5.203,-11.622 11.621,-11.622 v 0 c 6.419,0 11.622,5.203 11.622,11.622 v 0 12.629 h 0.201 c 0.259,1.822 0.834,3.54 1.65,5.111 v 0 c 7.961,-4.874 17.321,-7.688 27.34,-7.688 v 0 c 0.452,0 0.899,0.024 1.349,0.035 v 0 -0.053 c 0,-6.227 5.049,-11.276 11.276,-11.276 v 0 c 6.227,0 11.275,5.049 11.275,11.276 v 0 5.787 c 4.884,2.507 9.331,5.744 13.176,9.589 v 0 l -37.076,37.077 37.076,37.077 c -9.489,9.488 -22.597,15.357 -37.076,15.357 v 0 c -28.96,0 -52.434,-23.475 -52.434,-52.434 m 25.076,24.479 c 0,5.271 4.273,9.543 9.543,9.543 v 0 c 5.271,0 9.544,-4.272 9.544,-9.543 v 0 c 0,-5.271 -4.273,-9.543 -9.544,-9.543 v 0 c -5.27,0 -9.543,4.272 -9.543,9.543" /></clipPath><linearGradient
       id="linearGradient34"
       spreadMethod="pad"
       gradientTransform="matrix(89.510796,0,0,-89.510796,135.6944,189.71663)"
       gradientUnits="userSpaceOnUse"
       y2="0"
       x2="1"
       y1="0"
       x1="0"><stop
         id="stop24"
         offset="0"
         style="stop-opacity:1;stop-color:#e9206d" /><stop
         id="stop26"
         offset="0.0837438"
         style="stop-opacity:1;stop-color:#ea2b65" /><stop
         id="stop28"
         offset="0.261084"
         style="stop-opacity:1;stop-color:#ef4654" /><stop
         id="stop30"
         offset="0.704434"
         style="stop-opacity:1;stop-color:#f7a020" /><stop
         id="stop32"
         offset="1"
         style="stop-opacity:1;stop-color:#fad406" /></linearGradient><clipPath
       id="clipPath44"
       clipPathUnits="userSpaceOnUse"><path
         id="path42"
         d="M 19.471,243.268 C -10.001,147.201 44.499,45.553 140.613,16.812 v 0 c 26.219,-7.84 52.986,-9.334 78.521,-5.461 v 0 l -0.908,-1.033 122.389,-1.026 h 21.55 c 7.551,0 13.672,5.682 13.672,12.691 v 0 c 0,7.009 -6.121,12.69 -13.672,12.69 v 0 h -21.55 v 0.188 c -8.454,1.129 -14.955,7.861 -14.955,16.021 v 0 c 0,8.16 6.501,14.892 14.955,16.022 v 0 0.36 c 0.71,-0.105 1.434,-0.175 2.176,-0.175 v 0 h 63.818 c 7.55,0 13.671,5.681 13.671,12.69 v 0 c 0,7.009 -6.121,12.691 -13.671,12.691 v 0 h -63.818 c -0.742,0 -1.466,-0.071 -2.176,-0.176 v 0 0.176 h -44.876 c -6.718,1.157 -13.871,-0.531 -19.542,-5.131 v 0 C 243.182,60.56 197.933,50.036 154.437,63.041 v 0 C 84.63,83.915 44.447,158.382 65.32,228.189 v 0 c 20.874,69.806 94.878,110.128 165.147,89.117 v 0 c 16.372,-4.896 31.12,-12.717 43.835,-22.726 v 0 c 9.533,-7.504 23.226,-6.515 31.805,2.064 v 0 c 10.3,10.299 9.159,27.241 -2.318,36.208 v 0 c -17.794,13.903 -38.513,24.69 -61.586,31.293 v 0 c -16.457,4.711 -33.074,6.958 -49.444,6.958 v 0 C 115.252,371.104 43.242,320.755 19.471,243.268" /></clipPath><linearGradient
       id="linearGradient60"
       spreadMethod="pad"
       gradientTransform="matrix(408.81241,0,0,-408.81241,11.467608,190.19786)"
       gradientUnits="userSpaceOnUse"
       y2="0"
       x2="1"
       y1="0"
       x1="0"><stop
         id="stop50"
         offset="0"
         style="stop-opacity:1;stop-color:#e9206d" /><stop
         id="stop52"
         offset="0.0837438"
         style="stop-opacity:1;stop-color:#ea2b65" /><stop
         id="stop54"
         offset="0.261084"
         style="stop-opacity:1;stop-color:#ef4654" /><stop
         id="stop56"
         offset="0.704434"
         style="stop-opacity:1;stop-color:#f7a020" /><stop
         id="stop58"
         offset="1"
         style="stop-opacity:1;stop-color:#fad406" /></linearGradient><clipPath
       id="clipPath70"
       clipPathUnits="userSpaceOnUse"><path
         id="path68"
         d="m 217.326,9.292 0.9,1.026 -6.58,0.054 z" /></clipPath><linearGradient
       id="linearGradient86"
       spreadMethod="pad"
       gradientTransform="matrix(6.5802951,0,0,-6.5802951,211.64539,9.8324957)"
       gradientUnits="userSpaceOnUse"
       y2="0"
       x2="1"
       y1="0"
       x1="0"><stop
         id="stop76"
         offset="0"
         style="stop-opacity:1;stop-color:#e9206d" /><stop
         id="stop78"
         offset="0.0837438"
         style="stop-opacity:1;stop-color:#ea2b65" /><stop
         id="stop80"
         offset="0.261084"
         style="stop-opacity:1;stop-color:#ef4654" /><stop
         id="stop82"
         offset="0.704434"
         style="stop-opacity:1;stop-color:#f7a020" /><stop
         id="stop84"
         offset="1"
         style="stop-opacity:1;stop-color:#fad406" /></linearGradient></defs><g
     transform="matrix(1.3333333,0,0,-1.3333333,0,504.76133)"
     id="g10"><g
       id="g12"><g
         clip-path="url(#clipPath18)"
         id="g14"><g
           id="g20"><g
             id="g22"><path
               id="path36"
               style="fill:url(#linearGradient34);stroke:none"
               d="m 135.695,200.554 v -39.149 -1.85 -8.859 -12.629 c 0,-6.419 5.203,-11.622 11.621,-11.622 v 0 c 6.419,0 11.622,5.203 11.622,11.622 v 0 12.629 h 0.201 c 0.259,1.822 0.834,3.54 1.65,5.111 v 0 c 7.961,-4.874 17.321,-7.688 27.34,-7.688 v 0 c 0.452,0 0.899,0.024 1.349,0.035 v 0 -0.053 c 0,-6.227 5.049,-11.276 11.276,-11.276 v 0 c 6.227,0 11.275,5.049 11.275,11.276 v 0 5.787 c 4.884,2.507 9.331,5.744 13.176,9.589 v 0 l -37.076,37.077 37.076,37.077 c -9.489,9.488 -22.597,15.357 -37.076,15.357 v 0 c -28.96,0 -52.434,-23.475 -52.434,-52.434 m 25.076,24.479 c 0,5.271 4.273,9.543 9.543,9.543 v 0 c 5.271,0 9.544,-4.272 9.544,-9.543 v 0 c 0,-5.271 -4.273,-9.543 -9.544,-9.543 v 0 c -5.27,0 -9.543,4.272 -9.543,9.543" /></g></g></g></g><g
       id="g38"><g
         clip-path="url(#clipPath44)"
         id="g40"><g
           id="g46"><g
             id="g48"><path
               id="path62"
               style="fill:url(#linearGradient60);stroke:none"
               d="M 19.471,243.268 C -10.001,147.201 44.499,45.553 140.613,16.812 v 0 c 26.219,-7.84 52.986,-9.334 78.521,-5.461 v 0 l -0.908,-1.033 122.389,-1.026 h 21.55 c 7.551,0 13.672,5.682 13.672,12.691 v 0 c 0,7.009 -6.121,12.69 -13.672,12.69 v 0 h -21.55 v 0.188 c -8.454,1.129 -14.955,7.861 -14.955,16.021 v 0 c 0,8.16 6.501,14.892 14.955,16.022 v 0 0.36 c 0.71,-0.105 1.434,-0.175 2.176,-0.175 v 0 h 63.818 c 7.55,0 13.671,5.681 13.671,12.69 v 0 c 0,7.009 -6.121,12.691 -13.671,12.691 v 0 h -63.818 c -0.742,0 -1.466,-0.071 -2.176,-0.176 v 0 0.176 h -44.876 c -6.718,1.157 -13.871,-0.531 -19.542,-5.131 v 0 C 243.182,60.56 197.933,50.036 154.437,63.041 v 0 C 84.63,83.915 44.447,158.382 65.32,228.189 v 0 c 20.874,69.806 94.878,110.128 165.147,89.117 v 0 c 16.372,-4.896 31.12,-12.717 43.835,-22.726 v 0 c 9.533,-7.504 23.226,-6.515 31.805,2.064 v 0 c 10.3,10.299 9.159,27.241 -2.318,36.208 v 0 c -17.794,13.903 -38.513,24.69 -61.586,31.293 v 0 c -16.457,4.711 -33.074,6.958 -49.444,6.958 v 0 C 115.252,371.104 43.242,320.755 19.471,243.268" /></g></g></g></g><g
       id="g64"><g
         clip-path="url(#clipPath70)"
         id="g66"><g
           id="g72"><g
             id="g74"><path
               id="path88"
               style="fill:url(#linearGradient86);stroke:none"
               d="m 217.326,9.292 0.9,1.026 -6.58,0.054 z" /></g></g></g></g></g></svg>